<svg xmlns="http://www.w3.org/2000/svg" width="375" viewBox="0 0 375 375" height="375" version="1.0"><path fill="#FFF" d="M-37.5 -37.5H412.5V412.5H-37.5z"/><path fill="#FFF" d="M-37.5 -37.5H412.5V412.5H-37.5z"/><path fill="#F3F4F6" d="M-37.5 -37.5H412.5V412.5H-37.5z"/><path fill="#61DAFB" d="M 296.015625 187.359375 C 296.015625 172.96875 277.988281 159.324219 250.347656 150.867188 C 256.726562 122.699219 253.890625 100.289062 241.398438 93.113281 C 238.519531 91.429688 235.152344 90.632812 231.476562 90.632812 L 231.476562 100.507812 C 233.515625 100.507812 235.152344 100.90625 236.527344 101.660156 C 242.550781 105.117188 245.164062 118.269531 243.128906 135.1875 C 242.640625 139.351562 241.84375 143.734375 240.867188 148.210938 C 232.1875 146.082031 222.707031 144.445312 212.742188 143.382812 C 206.761719 135.1875 200.558594 127.746094 194.3125 121.238281 C 208.753906 107.816406 222.308594 100.464844 231.523438 100.464844 L 231.523438 90.589844 C 219.339844 90.589844 203.394531 99.269531 187.269531 114.328125 C 171.148438 99.359375 155.199219 90.765625 143.019531 90.765625 L 143.019531 100.640625 C 152.1875 100.640625 165.789062 107.949219 180.226562 121.28125 C 174.027344 127.792969 167.824219 135.1875 161.933594 143.382812 C 151.921875 144.445312 142.445312 146.082031 133.761719 148.253906 C 132.742188 143.824219 131.992188 139.527344 131.457031 135.410156 C 129.375 118.492188 131.945312 105.335938 137.925781 101.839844 C 139.253906 101.039062 140.980469 100.6875 143.019531 100.6875 L 143.019531 90.808594 C 139.300781 90.808594 135.933594 91.605469 133.007812 93.289062 C 120.5625 100.464844 117.773438 122.832031 124.195312 150.910156 C 96.644531 159.414062 78.703125 173.011719 78.703125 187.359375 C 78.703125 201.753906 96.730469 215.394531 124.371094 223.855469 C 117.992188 252.023438 120.828125 274.433594 133.320312 281.609375 C 136.199219 283.292969 139.566406 284.089844 143.285156 284.089844 C 155.46875 284.089844 171.414062 275.40625 187.535156 260.351562 C 203.660156 275.320312 219.605469 283.910156 231.789062 283.910156 C 235.507812 283.910156 238.875 283.113281 241.796875 281.429688 C 254.246094 274.257812 257.035156 251.890625 250.613281 223.8125 C 278.078125 215.351562 296.015625 201.710938 296.015625 187.359375 Z M 238.34375 157.820312 C 236.703125 163.53125 234.667969 169.421875 232.363281 175.3125 C 230.546875 171.769531 228.644531 168.226562 226.5625 164.683594 C 224.523438 161.140625 222.351562 157.6875 220.183594 154.320312 C 226.472656 155.25 232.539062 156.402344 238.34375 157.820312 Z M 218.054688 204.988281 C 214.601562 210.96875 211.058594 216.636719 207.382812 221.90625 C 200.78125 222.480469 194.09375 222.792969 187.359375 222.792969 C 180.671875 222.792969 173.980469 222.480469 167.425781 221.949219 C 163.75 216.679688 160.164062 211.054688 156.707031 205.121094 C 153.339844 199.320312 150.285156 193.429688 147.492188 187.492188 C 150.238281 181.558594 153.339844 175.625 156.664062 169.824219 C 160.117188 163.84375 163.660156 158.175781 167.339844 152.902344 C 173.9375 152.328125 180.625 152.019531 187.359375 152.019531 C 194.046875 152.019531 200.738281 152.328125 207.292969 152.859375 C 210.96875 158.128906 214.558594 163.753906 218.011719 169.6875 C 221.378906 175.492188 224.433594 181.382812 227.226562 187.316406 C 224.433594 193.25 221.378906 199.1875 218.054688 204.988281 Z M 232.363281 199.230469 C 234.753906 205.164062 236.792969 211.101562 238.476562 216.859375 C 232.671875 218.273438 226.5625 219.46875 220.226562 220.402344 C 222.398438 216.992188 224.566406 213.492188 226.605469 209.902344 C 228.644531 206.359375 230.546875 202.773438 232.363281 199.230469 Z M 187.449219 246.488281 C 183.328125 242.234375 179.210938 237.496094 175.132812 232.316406 C 179.121094 232.492188 183.195312 232.625 187.316406 232.625 C 191.480469 232.625 195.597656 232.535156 199.628906 232.316406 C 195.644531 237.496094 191.523438 242.234375 187.449219 246.488281 Z M 154.492188 220.402344 C 148.203125 219.46875 142.132812 218.320312 136.332031 216.902344 C 137.96875 211.1875 140.007812 205.296875 142.3125 199.40625 C 144.128906 202.949219 146.03125 206.492188 148.113281 210.035156 C 150.195312 213.582031 152.320312 217.035156 154.492188 220.402344 Z M 187.226562 128.234375 C 191.347656 132.488281 195.464844 137.226562 199.539062 142.40625 C 195.554688 142.230469 191.480469 142.097656 187.359375 142.097656 C 183.195312 142.097656 179.078125 142.1875 175.046875 142.40625 C 179.03125 137.226562 183.152344 132.488281 187.226562 128.234375 Z M 154.449219 154.320312 C 152.277344 157.730469 150.105469 161.230469 148.070312 164.816406 C 146.03125 168.359375 144.128906 171.902344 142.3125 175.445312 C 139.917969 169.511719 137.882812 163.578125 136.199219 157.820312 C 142 156.445312 148.113281 155.25 154.449219 154.320312 Z M 114.359375 209.769531 C 98.679688 203.082031 88.535156 194.3125 88.535156 187.359375 C 88.535156 180.40625 98.679688 171.59375 114.359375 164.949219 C 118.171875 163.3125 122.332031 161.851562 126.628906 160.476562 C 129.15625 169.15625 132.476562 178.191406 136.597656 187.449219 C 132.523438 196.660156 129.242188 205.652344 126.761719 214.289062 C 122.378906 212.914062 118.214844 211.410156 114.359375 209.769531 Z M 138.191406 273.0625 C 132.167969 269.605469 129.554688 256.453125 131.589844 239.535156 C 132.078125 235.371094 132.875 230.984375 133.851562 226.511719 C 142.53125 228.636719 152.011719 230.277344 161.976562 231.339844 C 167.957031 239.535156 174.160156 246.972656 180.40625 253.484375 C 165.964844 266.90625 152.410156 274.257812 143.195312 274.257812 C 141.203125 274.210938 139.519531 273.8125 138.191406 273.0625 Z M 243.261719 239.3125 C 245.34375 256.230469 242.773438 269.382812 236.792969 272.882812 C 235.464844 273.679688 233.738281 274.035156 231.699219 274.035156 C 222.53125 274.035156 208.929688 266.726562 194.492188 253.394531 C 200.691406 246.886719 206.894531 239.488281 212.785156 231.296875 C 222.796875 230.234375 232.273438 228.59375 240.957031 226.425781 C 241.976562 230.898438 242.773438 235.191406 243.261719 239.3125 Z M 260.3125 209.769531 C 256.503906 211.410156 252.339844 212.871094 248.042969 214.246094 C 245.519531 205.5625 242.195312 196.527344 238.078125 187.273438 C 242.152344 178.058594 245.429688 169.070312 247.910156 160.433594 C 252.296875 161.804688 256.460938 163.3125 260.359375 164.949219 C 276.039062 171.636719 286.183594 180.40625 286.183594 187.359375 C 286.136719 194.3125 275.996094 203.128906 260.3125 209.769531 Z M 260.3125 209.769531"/><path fill="#61DAFB" d="M 207.558594 187.359375 C 207.558594 188.023438 207.527344 188.683594 207.460938 189.34375 C 207.394531 190.003906 207.296875 190.660156 207.167969 191.308594 C 207.039062 191.960938 206.878906 192.601562 206.6875 193.234375 C 206.492188 193.871094 206.269531 194.492188 206.015625 195.105469 C 205.761719 195.71875 205.480469 196.316406 205.167969 196.902344 C 204.855469 197.488281 204.515625 198.054688 204.148438 198.605469 C 203.777344 199.15625 203.382812 199.6875 202.964844 200.199219 C 202.542969 200.714844 202.097656 201.203125 201.628906 201.671875 C 201.160156 202.140625 200.667969 202.585938 200.15625 203.007812 C 199.644531 203.425781 199.113281 203.820312 198.5625 204.191406 C 198.011719 204.558594 197.441406 204.898438 196.859375 205.210938 C 196.273438 205.523438 195.675781 205.808594 195.0625 206.058594 C 194.449219 206.3125 193.824219 206.535156 193.191406 206.730469 C 192.558594 206.921875 191.914062 207.082031 191.265625 207.210938 C 190.613281 207.339844 189.960938 207.4375 189.300781 207.503906 C 188.640625 207.570312 187.976562 207.601562 187.316406 207.601562 C 186.652344 207.601562 185.992188 207.570312 185.332031 207.503906 C 184.671875 207.4375 184.015625 207.339844 183.367188 207.210938 C 182.714844 207.082031 182.074219 206.921875 181.4375 206.730469 C 180.804688 206.535156 180.179688 206.3125 179.570312 206.058594 C 178.957031 205.808594 178.355469 205.523438 177.773438 205.210938 C 177.1875 204.898438 176.621094 204.558594 176.070312 204.191406 C 175.515625 203.820312 174.984375 203.425781 174.472656 203.007812 C 173.960938 202.585938 173.46875 202.140625 173 201.671875 C 172.53125 201.203125 172.085938 200.714844 171.667969 200.199219 C 171.246094 199.6875 170.851562 199.15625 170.484375 198.605469 C 170.117188 198.054688 169.773438 197.488281 169.460938 196.902344 C 169.148438 196.316406 168.867188 195.71875 168.613281 195.105469 C 168.359375 194.492188 168.136719 193.871094 167.945312 193.234375 C 167.75 192.601562 167.589844 191.960938 167.460938 191.308594 C 167.332031 190.660156 167.234375 190.003906 167.167969 189.34375 C 167.105469 188.683594 167.070312 188.023438 167.070312 187.359375 C 167.070312 186.699219 167.105469 186.035156 167.167969 185.378906 C 167.234375 184.71875 167.332031 184.0625 167.460938 183.414062 C 167.589844 182.761719 167.75 182.121094 167.945312 181.484375 C 168.136719 180.851562 168.359375 180.226562 168.613281 179.613281 C 168.867188 179.003906 169.148438 178.402344 169.460938 177.820312 C 169.773438 177.234375 170.117188 176.667969 170.484375 176.117188 C 170.851562 175.566406 171.246094 175.03125 171.667969 174.519531 C 172.085938 174.007812 172.53125 173.519531 173 173.050781 C 173.46875 172.582031 173.960938 172.136719 174.472656 171.714844 C 174.984375 171.292969 175.515625 170.898438 176.070312 170.53125 C 176.621094 170.164062 177.1875 169.824219 177.773438 169.511719 C 178.355469 169.199219 178.957031 168.914062 179.570312 168.660156 C 180.179688 168.40625 180.804688 168.183594 181.4375 167.992188 C 182.074219 167.800781 182.714844 167.640625 183.367188 167.507812 C 184.015625 167.378906 184.671875 167.28125 185.332031 167.21875 C 185.992188 167.152344 186.652344 167.121094 187.316406 167.121094 C 187.976562 167.121094 188.640625 167.152344 189.300781 167.21875 C 189.960938 167.28125 190.613281 167.378906 191.265625 167.507812 C 191.914062 167.640625 192.558594 167.800781 193.191406 167.992188 C 193.824219 168.183594 194.449219 168.40625 195.0625 168.660156 C 195.675781 168.914062 196.273438 169.199219 196.859375 169.511719 C 197.441406 169.824219 198.011719 170.164062 198.5625 170.53125 C 199.113281 170.898438 199.644531 171.292969 200.15625 171.714844 C 200.667969 172.136719 201.160156 172.582031 201.628906 173.050781 C 202.097656 173.519531 202.542969 174.007812 202.964844 174.519531 C 203.382812 175.03125 203.777344 175.566406 204.148438 176.117188 C 204.515625 176.667969 204.855469 177.234375 205.167969 177.820312 C 205.480469 178.402344 205.761719 179.003906 206.015625 179.613281 C 206.269531 180.226562 206.492188 180.851562 206.6875 181.484375 C 206.878906 182.121094 207.039062 182.761719 207.167969 183.414062 C 207.296875 184.0625 207.394531 184.71875 207.460938 185.378906 C 207.527344 186.035156 207.558594 186.699219 207.558594 187.359375 Z M 207.558594 187.359375"/></svg>